<svg width="16" height="16" viewBox="0 0 16 16" fill="none" xmlns="http://www.w3.org/2000/svg">
<path fill-rule="evenodd" clip-rule="evenodd" d="M9.7628 1.95519C10.1558 1.82421 10.5805 2.03658 10.7115 2.42954L11.4295 4.58346H12.6666H12.6666C12.967 4.58343 13.2638 4.64835 13.5367 4.77377C13.8097 4.8992 14.0523 5.08216 14.2479 5.31013C14.4435 5.53809 14.5875 5.80566 14.67 6.09448C14.7525 6.38331 14.7716 6.68656 14.7259 6.98346L14.7234 6.99908L13.888 11.7599C13.7865 12.406 13.4581 12.9949 12.9616 13.4208C12.4629 13.8485 11.8276 14.0836 11.1706 14.0835H11.1704H4.82931H4.82928C4.17239 14.0834 3.53722 13.8483 3.03869 13.4205C2.54232 12.9946 2.21407 12.4058 2.11267 11.7599L1.27727 6.99908L1.2747 6.98346C1.22904 6.68656 1.24812 6.38331 1.33064 6.09448C1.41316 5.80566 1.55716 5.53809 1.75276 5.31013C1.94837 5.08216 2.19096 4.8992 2.46391 4.77377C2.73682 4.64835 3.03363 4.58343 3.33398 4.58346H3.33407H4.57047L5.28845 2.42954C5.41943 2.03658 5.84417 1.82421 6.23713 1.95519C6.63009 2.08618 6.84246 2.51092 6.71147 2.90388L6.15161 4.58346H9.84832L9.28846 2.90388C9.15747 2.51092 9.36984 2.08618 9.7628 1.95519ZM4.07047 6.08346L3.95511 6.42954C3.82413 6.82249 4.0365 7.24723 4.42946 7.37822C4.82241 7.50921 5.24715 7.29684 5.37814 6.90388L5.65161 6.08346H10.3483L10.6218 6.90388C10.7528 7.29684 11.1775 7.50921 11.5705 7.37822C11.9634 7.24723 12.1758 6.82249 12.0448 6.42954L11.9295 6.08346H12.6666H12.6667C12.7508 6.08345 12.834 6.10162 12.9104 6.13674C12.9868 6.17186 13.0547 6.22309 13.1095 6.28692C13.1643 6.35075 13.2046 6.42567 13.2277 6.50654C13.2502 6.58539 13.2559 6.66808 13.2443 6.74921L12.4093 11.5078L12.4067 11.5235C12.3613 11.8186 12.2117 12.0878 11.985 12.2823C11.7583 12.4767 11.4695 12.5835 11.1709 12.5835L11.1706 12.5835L4.82935 12.5835L4.82931 12.5835C4.53074 12.5834 4.24204 12.4765 4.01545 12.2821C3.78884 12.0877 3.63932 11.8186 3.59393 11.5235L3.59136 11.5078L2.75634 6.74922C2.74476 6.66808 2.7504 6.58539 2.77293 6.50654C2.79604 6.42567 2.83636 6.35075 2.89113 6.28692C2.9459 6.22309 3.01382 6.17186 3.09025 6.13674C3.16667 6.10162 3.24978 6.08345 3.33389 6.08346H3.33398H4.07047ZM7.99996 7.25008C7.44742 7.25008 6.91752 7.46958 6.52682 7.86028C6.13612 8.25098 5.91663 8.78088 5.91663 9.33342C5.91663 9.88595 6.13612 10.4159 6.52682 10.8066C6.91752 11.1973 7.44742 11.4167 7.99996 11.4167C8.55249 11.4167 9.0824 11.1973 9.4731 10.8066C9.8638 10.4159 10.0833 9.88595 10.0833 9.33342C10.0833 8.78088 9.8638 8.25098 9.4731 7.86028C9.0824 7.46958 8.55249 7.25008 7.99996 7.25008ZM7.58748 8.92094C7.69688 8.81154 7.84525 8.75008 7.99996 8.75008C8.15467 8.75008 8.30304 8.81154 8.41244 8.92094C8.52183 9.03033 8.58329 9.17871 8.58329 9.33342C8.58329 9.48812 8.52183 9.6365 8.41244 9.74589C8.30304 9.85529 8.15467 9.91675 7.99996 9.91675C7.84525 9.91675 7.69688 9.85529 7.58748 9.74589C7.47808 9.6365 7.41663 9.48812 7.41663 9.33342C7.41663 9.17871 7.47808 9.03033 7.58748 8.92094Z" fill="#60646C"/>
</svg>
