<svg width="16" height="16" viewBox="0 0 16 16" fill="none" xmlns="http://www.w3.org/2000/svg">
<path fill-rule="evenodd" clip-rule="evenodd" d="M8 1.25C7.58579 1.25 7.25 1.58579 7.25 2C7.25 2.41421 7.58579 2.75 8 2.75C8.37463 2.75 8.74726 2.79009 9.11165 2.86904C9.41786 2.93538 9.71824 3.02916 10.0091 3.14963C10.3513 3.29139 10.6767 3.46861 10.9802 3.67788C11.2416 3.85811 11.4867 4.06211 11.7123 4.28769C11.9602 4.53563 12.1821 4.80716 12.375 5.09795C12.5614 5.37894 12.7207 5.6779 12.8504 5.99091C13.0089 6.3736 13.4476 6.55532 13.8303 6.39681C14.213 6.2383 14.3947 5.79957 14.2362 5.41689C14.0695 5.01444 13.8646 4.63006 13.625 4.2688C13.377 3.89492 13.0917 3.5458 12.773 3.22703C12.4829 2.937 12.1678 2.67472 11.8317 2.44299C11.4415 2.17393 11.0231 1.94607 10.5831 1.76381C10.2092 1.60892 9.82296 1.48835 9.42926 1.40305C8.96076 1.30155 8.48166 1.25 8 1.25ZM5.99091 3.14963C6.3736 2.99112 6.55532 2.55239 6.39681 2.16971C6.2383 1.78703 5.79957 1.6053 5.41689 1.76381C5.01444 1.93051 4.63006 2.13537 4.2688 2.375C3.92362 2.60397 3.82941 3.0694 4.05838 3.41458C4.28734 3.75976 4.75278 3.85397 5.09795 3.625C5.37894 3.43862 5.6779 3.27929 5.99091 3.14963ZM3.625 5.09795C3.85397 4.75278 3.75976 4.28734 3.41458 4.05838C3.0694 3.82941 2.60397 3.92362 2.375 4.2688C2.13537 4.63006 1.93051 5.01444 1.76381 5.41689C1.6053 5.79957 1.78703 6.2383 2.16971 6.39681C2.55239 6.55532 2.99112 6.3736 3.14963 5.99091C3.27929 5.6779 3.43862 5.37894 3.625 5.09795ZM2.75 8C2.75 7.58579 2.41421 7.25 2 7.25C1.58579 7.25 1.25 7.58579 1.25 8C1.25 8.45863 1.29674 8.91493 1.38883 9.36197C1.47241 9.76767 1.86904 10.0288 2.27474 9.94522C2.68043 9.86164 2.94156 9.46501 2.85798 9.05931C2.78635 8.71161 2.75 8.35671 2.75 8ZM14.75 8C14.75 7.58579 14.4142 7.25 14 7.25C13.5858 7.25 13.25 7.58579 13.25 8C13.25 8.34766 13.2155 8.69361 13.1474 9.03284C13.0659 9.43896 13.3291 9.83424 13.7352 9.91573C14.1413 9.99722 14.5366 9.73405 14.6181 9.32794C14.7056 8.89178 14.75 8.44699 14.75 8ZM3.625 10.902C3.39603 10.5569 2.9306 10.4627 2.58542 10.6916C2.24024 10.9206 2.14603 11.386 2.375 11.7312C2.623 12.1051 2.90826 12.4542 3.22703 12.773C3.51992 13.0659 3.9948 13.0659 4.28769 12.773C4.58058 12.4801 4.58058 12.0052 4.28769 11.7123C4.03975 11.4644 3.81789 11.1928 3.625 10.902ZM13.625 11.7312C13.854 11.386 13.7598 10.9206 13.4146 10.6916C13.0694 10.4627 12.604 10.5569 12.375 10.902C12.1821 11.1928 11.9602 11.4644 11.7123 11.7123C11.4194 12.0052 11.4194 12.4801 11.7123 12.773C12.0052 13.0659 12.4801 13.0659 12.773 12.773C13.0917 12.4542 13.377 12.1051 13.625 11.7312ZM5.01099 13.2563C4.85248 13.6389 5.0342 14.0777 5.41689 14.2362C5.82932 14.407 6.25667 14.5361 6.69253 14.6222C7.0989 14.7024 7.49337 14.438 7.5736 14.0316C7.65384 13.6253 7.38945 13.2308 6.98308 13.1506C6.64408 13.0836 6.3117 12.9832 5.99091 12.8504C5.60823 12.6919 5.1695 12.8736 5.01099 13.2563ZM10.5831 14.2362C10.9658 14.0777 11.1475 13.6389 10.989 13.2563C10.8305 12.8736 10.3918 12.6919 10.0091 12.8504C9.71051 12.974 9.40188 13.0696 9.08722 13.1362C8.68199 13.222 8.42302 13.62 8.50879 14.0252C8.59457 14.4305 8.99262 14.6895 9.39785 14.6037C9.80242 14.518 10.1992 14.3952 10.5831 14.2362ZM9.72329 4.84469C9.4247 4.67881 9.09041 4.58916 8.75 4.58287V4C8.75 3.58579 8.41421 3.25 8 3.25C7.58579 3.25 7.25 3.58579 7.25 4V4.58494C6.72775 4.60583 6.23121 4.82245 5.86019 5.19347C5.46949 5.58417 5.25 6.11407 5.25 6.66661C5.25 7.21914 5.46949 7.74905 5.86019 8.13975C6.25089 8.53045 6.7808 8.74994 7.33333 8.74994H8.66667C8.82138 8.74994 8.96975 8.8114 9.07915 8.9208C9.18854 9.03019 9.25 9.17857 9.25 9.33327C9.25 9.48798 9.18854 9.63636 9.07915 9.74575C8.96975 9.85515 8.82138 9.91661 8.66667 9.91661H7.33333C7.32492 9.91661 7.31651 9.91675 7.3081 9.91703C7.20237 9.92059 7.09766 9.89533 7.00518 9.84396C6.9127 9.79258 6.83593 9.71702 6.7831 9.62537C6.57623 9.26651 6.11761 9.14331 5.75876 9.35018C5.3999 9.55705 5.2767 10.0157 5.48357 10.3745C5.67227 10.7018 5.94643 10.9717 6.27671 11.1552C6.5753 11.3211 6.90959 11.4107 7.25 11.417V12C7.25 12.4142 7.58579 12.75 8 12.75C8.41421 12.75 8.75 12.4142 8.75 12V11.4149C9.27225 11.3941 9.76879 11.1774 10.1398 10.8064C10.5305 10.4157 10.75 9.88581 10.75 9.33327C10.75 8.78074 10.5305 8.25084 10.1398 7.86014C9.74911 7.46944 9.2192 7.24994 8.66667 7.24994H7.33333C7.17862 7.24994 7.03025 7.18848 6.92085 7.07909C6.81146 6.96969 6.75 6.82132 6.75 6.66661C6.75 6.5119 6.81146 6.36353 6.92085 6.25413C7.03025 6.14473 7.17862 6.08327 7.33333 6.08327H8.66667C8.67508 6.08327 8.68349 6.08313 8.6919 6.08285C8.79763 6.07929 8.90234 6.10455 8.99482 6.15593C9.0873 6.2073 9.16407 6.28286 9.2169 6.37452C9.42377 6.73337 9.88239 6.85658 10.2412 6.64971C10.6001 6.44283 10.7233 5.98422 10.5164 5.62537C10.3277 5.29803 10.0536 5.02818 9.72329 4.84469Z" fill="#60646C"/>
</svg>
