<svg width="16" height="16" viewBox="0 0 16 16" fill="none" xmlns="http://www.w3.org/2000/svg">
<path fill-rule="evenodd" clip-rule="evenodd" d="M11.1618 3.50508C11.0211 3.36428 10.827 3.29011 10.6282 3.30112C10.4294 3.31213 10.2446 3.40728 10.1203 3.56276L7.80711 6.45421L5.64659 5.37395C5.33083 5.21607 4.94693 5.31802 4.7511 5.61176L2.08444 9.61176C1.86999 9.93343 1.95691 10.368 2.27858 10.5825C2.60025 10.7969 3.03486 10.71 3.24931 10.3883L5.5732 6.9025L7.68716 7.95948C7.98238 8.1071 8.34062 8.02842 8.54681 7.77067L10.7249 5.04804L12.8386 7.16169C13.1119 7.43506 13.5551 7.43506 13.8285 7.16169C14.1019 6.88832 14.1019 6.44511 13.8285 6.17174L11.1618 3.50508ZM2.66687 11.9667C2.28027 11.9667 1.96687 12.2801 1.96687 12.6667C1.96687 13.0533 2.28027 13.3667 2.66687 13.3667H13.3335C13.7201 13.3667 14.0335 13.0533 14.0335 12.6667C14.0335 12.2801 13.7201 11.9667 13.3335 11.9667H2.66687Z" fill="#60646C"/>
</svg>
