<svg width="16" height="16" viewBox="0 0 16 16" fill="none" xmlns="http://www.w3.org/2000/svg">
<path fill-rule="evenodd" clip-rule="evenodd" d="M4.58316 4C4.58316 3.58579 4.91895 3.25 5.33316 3.25H13.3332C13.7474 3.25 14.0832 3.58579 14.0832 4C14.0832 4.41421 13.7474 4.75 13.3332 4.75H5.33316C4.91895 4.75 4.58316 4.41421 4.58316 4ZM3.24983 8C3.24983 7.58579 3.58562 7.25 3.99983 7.25H11.9998C12.414 7.25 12.7498 7.58579 12.7498 8C12.7498 8.41421 12.414 8.75 11.9998 8.75H3.99983C3.58562 8.75 3.24983 8.41421 3.24983 8ZM2.6665 11.25C2.25229 11.25 1.9165 11.5858 1.9165 12C1.9165 12.4142 2.25229 12.75 2.6665 12.75H10.6665C11.0807 12.75 11.4165 12.4142 11.4165 12C11.4165 11.5858 11.0807 11.25 10.6665 11.25H2.6665Z" fill="#1C2024"/>
</svg>
