<svg width="16" height="16" viewBox="0 0 16 16" fill="none" xmlns="http://www.w3.org/2000/svg">
<path fill-rule="evenodd" clip-rule="evenodd" d="M5.41689 1.76381C6.23583 1.42459 7.11358 1.25 8 1.25C8.88642 1.25 9.76417 1.42459 10.5831 1.76381C11.4021 2.10303 12.1462 2.60023 12.773 3.22703C13.3998 3.85382 13.897 4.59794 14.2362 5.41689C14.5754 6.23584 14.75 7.11358 14.75 8C14.75 8.88642 14.5754 9.76417 14.2362 10.5831C13.897 11.4021 13.3998 12.1462 12.773 12.773C12.1462 13.3998 11.4021 13.897 10.5831 14.2362C9.76417 14.5754 8.88642 14.75 8 14.75C7.11358 14.75 6.23584 14.5754 5.41689 14.2362C4.59794 13.897 3.85382 13.3998 3.22703 12.773C2.60023 12.1462 2.10303 11.4021 1.76381 10.5831C1.42459 9.76417 1.25 8.88642 1.25 8C1.25 7.11358 1.42459 6.23583 1.76381 5.41689C2.10303 4.59794 2.60023 3.85382 3.22703 3.22703C3.85382 2.60023 4.59794 2.10303 5.41689 1.76381ZM8 2.75C7.31056 2.75 6.62787 2.8858 5.99091 3.14963C5.35395 3.41347 4.7752 3.80018 4.28769 4.28769C3.80018 4.7752 3.41347 5.35395 3.14963 5.99091C2.8858 6.62787 2.75 7.31056 2.75 8C2.75 8.68944 2.8858 9.37213 3.14963 10.0091C3.41347 10.646 3.80018 11.2248 4.28769 11.7123C4.7752 12.1998 5.35395 12.5865 5.99091 12.8504C6.62787 13.1142 7.31056 13.25 8 13.25C8.68944 13.25 9.37213 13.1142 10.0091 12.8504C10.646 12.5865 11.2248 12.1998 11.7123 11.7123C12.1998 11.2248 12.5865 10.646 12.8504 10.0091C13.1142 9.37213 13.25 8.68944 13.25 8C13.25 7.31056 13.1142 6.62787 12.8504 5.99091C12.5865 5.35395 12.1998 4.7752 11.7123 4.28769C11.2248 3.80018 10.646 3.41347 10.0091 3.14963C9.37213 2.8858 8.68944 2.75 8 2.75ZM8.75 4.58287C9.09041 4.58916 9.4247 4.67881 9.72329 4.84469C10.0536 5.02818 10.3277 5.29803 10.5164 5.62537C10.7233 5.98422 10.6001 6.44283 10.2412 6.64971C9.88239 6.85658 9.42377 6.73337 9.2169 6.37452C9.16407 6.28286 9.0873 6.2073 8.99482 6.15593C8.90234 6.10455 8.79763 6.07929 8.6919 6.08285C8.68349 6.08313 8.67508 6.08327 8.66667 6.08327H7.33333C7.17862 6.08327 7.03025 6.14473 6.92085 6.25413C6.81146 6.36353 6.75 6.5119 6.75 6.66661C6.75 6.82132 6.81146 6.96969 6.92085 7.07909C7.03025 7.18848 7.17862 7.24994 7.33333 7.24994H8.66667C9.2192 7.24994 9.74911 7.46944 10.1398 7.86014C10.5305 8.25084 10.75 8.78074 10.75 9.33327C10.75 9.88581 10.5305 10.4157 10.1398 10.8064C9.76879 11.1774 9.27225 11.3941 8.75 11.4149V12C8.75 12.4142 8.41421 12.75 8 12.75C7.58579 12.75 7.25 12.4142 7.25 12V11.417C6.90959 11.4107 6.5753 11.3211 6.27671 11.1552C5.94643 10.9717 5.67227 10.7018 5.48357 10.3745C5.2767 10.0157 5.3999 9.55705 5.75876 9.35018C6.11761 9.14331 6.57623 9.26651 6.7831 9.62537C6.83593 9.71702 6.9127 9.79258 7.00518 9.84396C7.09766 9.89533 7.20237 9.92059 7.3081 9.91703C7.31651 9.91675 7.32492 9.91661 7.33333 9.91661H8.66667C8.82138 9.91661 8.96975 9.85515 9.07915 9.74575C9.18854 9.63636 9.25 9.48798 9.25 9.33327C9.25 9.17857 9.18854 9.03019 9.07915 8.9208C8.96975 8.8114 8.82138 8.74994 8.66667 8.74994H7.33333C6.7808 8.74994 6.25089 8.53045 5.86019 8.13975C5.46949 7.74905 5.25 7.21914 5.25 6.66661C5.25 6.11407 5.46949 5.58417 5.86019 5.19347C6.23121 4.82245 6.72775 4.60583 7.25 4.58494V4C7.25 3.58579 7.58579 3.25 8 3.25C8.41421 3.25 8.75 3.58579 8.75 4V4.58287Z" fill="#60646C"/>
</svg>
