<svg width="16" height="16" viewBox="0 0 16 16" fill="none" xmlns="http://www.w3.org/2000/svg">
<path fill-rule="evenodd" clip-rule="evenodd" d="M6.72736 3.66676L7.66673 2.72739L9.9394 5.00006L9.00003 5.93943L6.72736 3.66676ZM6.00003 5.06075L5.06069 6.00009L6.6667 7.6061L7.60604 6.66676L6.00003 5.06075ZM5.93937 9.00009L3.6667 6.72742L2.72739 7.66673L5.00006 9.9394L5.93937 9.00009ZM8.77767 7.71633C8.84904 7.73849 8.92395 7.75006 9.00006 7.75006C9.19897 7.75006 9.38974 7.67104 9.53039 7.53039L11.0591 6.00172L11.0591 6.00165C11.3247 5.73598 11.4739 5.37571 11.4739 5.00006C11.4739 4.62441 11.3247 4.26414 11.0591 3.99848L11.0591 3.9984L8.66839 1.60773L8.66831 1.60765C8.40265 1.34207 8.04238 1.19287 7.66673 1.19287C7.29108 1.19287 6.93081 1.34207 6.66514 1.60765L6.66507 1.60773L5.1364 3.1364C4.99575 3.27705 4.91673 3.46782 4.91673 3.66673C4.91673 3.76927 4.93773 3.86965 4.97735 3.96212L3.96212 4.97735C3.86965 4.93773 3.76927 4.91673 3.66673 4.91673C3.46782 4.91673 3.27705 4.99575 3.1364 5.1364L1.60773 6.66507L1.60765 6.66514C1.34207 6.93081 1.19287 7.29108 1.19287 7.66673C1.19287 8.04238 1.34207 8.40265 1.60765 8.66831L1.60773 8.66839L3.9984 11.0591L3.99848 11.0591C4.26414 11.3247 4.62441 11.4739 5.00006 11.4739C5.37571 11.4739 5.73598 11.3247 6.00165 11.0591L6.00172 11.0591L7.53039 9.53039C7.67104 9.38974 7.75006 9.19897 7.75006 9.00006C7.75006 8.92326 7.73828 8.84767 7.71572 8.77571L12.4085 13.4546C12.7018 13.747 13.1767 13.7463 13.4692 13.453C13.7616 13.1597 13.7609 12.6848 13.4676 12.3923L8.77767 7.71633ZM1.25006 14.0001C1.25006 13.5859 1.58585 13.2501 2.00006 13.2501H6.66673C7.08094 13.2501 7.41673 13.5859 7.41673 14.0001C7.41673 14.4143 7.08094 14.7501 6.66673 14.7501H2.00006C1.58585 14.7501 1.25006 14.4143 1.25006 14.0001Z" fill="#60646C"/>
</svg>
