<svg width="16" height="16" viewBox="0 0 16 16" fill="none" xmlns="http://www.w3.org/2000/svg">
<path fill-rule="evenodd" clip-rule="evenodd" d="M4.53052 3.48164C4.87713 3.37198 5.24268 3.33528 5.60416 3.37384C5.96565 3.4124 6.31523 3.52539 6.6309 3.7057C6.77155 3.78603 6.90411 3.87895 7.02705 3.98311L5.30987 5.70029L5.30979 5.70036C5.05358 5.95665 4.90965 6.3042 4.90965 6.66659C4.90965 7.02899 5.05358 7.37654 5.30979 7.63283L5.30987 7.6329L5.67187 7.9949C6.40524 8.72827 7.59512 8.72827 8.32849 7.9949L8.99515 7.32824L8.99515 7.32823C9.2617 7.06169 9.62322 6.91195 10.0002 6.91195C10.3771 6.91195 10.7387 7.06169 11.0052 7.32824L12.0319 8.35498L11.352 9.02841L10.4951 8.17158C10.2218 7.89821 9.77856 7.89821 9.5052 8.17158C9.23183 8.44494 9.23183 8.88816 9.5052 9.16153L10.3573 10.0136L9.67723 10.6871L8.82847 9.83833C8.55511 9.56496 8.11189 9.56496 7.83853 9.83833C7.56516 10.1117 7.56516 10.5549 7.83853 10.8283L8.68251 11.6723L8.00017 12.348L3.49275 7.8839L3.49277 7.88388L3.48835 7.87958C3.22781 7.62605 3.02259 7.32132 2.8856 6.98458C2.74862 6.64784 2.68284 6.28639 2.69242 5.92298C2.70199 5.55957 2.7867 5.20208 2.94123 4.87302C3.09575 4.54396 3.31673 4.25045 3.59025 4.01099C3.86378 3.77153 4.18392 3.5913 4.53052 3.48164ZM12.9579 7.30106C13.0142 7.20135 13.064 7.09786 13.107 6.99119C13.2424 6.65504 13.307 6.29455 13.2967 5.9323C13.2864 5.57005 13.2014 5.21382 13.0471 4.88591C12.8928 4.558 12.6724 4.26548 12.3999 4.02664C12.1273 3.7878 11.8084 3.60779 11.463 3.49788C11.1177 3.38797 10.7534 3.35052 10.3929 3.38787C10.0325 3.42523 9.6836 3.53659 9.36814 3.71498C9.05269 3.89337 8.77745 4.13495 8.55966 4.42461C8.52695 4.46811 8.48965 4.50717 8.44871 4.54134L6.32346 6.66659L6.66182 7.00495C6.84845 7.19159 7.1519 7.19159 7.33854 7.00495L8.0052 6.33829L8.00521 6.33828C8.53431 5.80919 9.25192 5.51195 10.0002 5.51195C10.7484 5.51195 11.466 5.80919 11.9952 6.33829L12.9579 7.30106ZM8.49275 13.8306L13.4457 8.92526C13.4611 8.91249 13.4761 8.89895 13.4907 8.88465C13.8867 8.4957 14.1981 8.02919 14.4056 7.51433C14.613 6.99947 14.7119 6.44733 14.6961 5.89249C14.6803 5.33764 14.5502 4.79203 14.3138 4.28979C14.0775 3.78756 13.74 3.33951 13.3225 2.97369C12.9051 2.60788 12.4166 2.33217 11.8877 2.16382C11.3587 1.99548 10.8007 1.93811 10.2486 1.99533C9.69652 2.05255 9.16216 2.22311 8.679 2.49634C8.43714 2.63311 8.21071 2.79414 8.00303 2.97651C7.79508 2.79185 7.56804 2.62869 7.32527 2.49002C6.84177 2.21386 6.30633 2.0408 5.75267 1.98174C5.199 1.92268 4.6391 1.97889 4.10823 2.14685C3.57736 2.3148 3.08701 2.59086 2.66807 2.95763C2.24912 3.3244 1.91066 3.77394 1.67399 4.27794C1.43732 4.78195 1.30756 5.3295 1.2929 5.88611C1.27824 6.44273 1.37899 6.99635 1.5888 7.51211C1.7982 8.02688 2.11172 8.49281 2.50967 8.88068L7.50759 13.8306C7.7804 14.1008 8.21994 14.1008 8.49275 13.8306Z" fill="#60646C"/>
</svg>
