<svg width="16" height="16" viewBox="0 0 16 16" fill="none" xmlns="http://www.w3.org/2000/svg">
<path fill-rule="evenodd" clip-rule="evenodd" d="M6.50888 2.49262C6.31939 2.30139 6.04194 2.22639 5.78191 2.29611L3.84991 2.81411C3.62262 2.87505 3.43712 3.03913 3.34887 3.25727C3.26063 3.4754 3.27988 3.72231 3.40086 3.92414L5.38497 7.234L4.71406 7.41371L3.3497 6.62628C3.17748 6.52688 2.97283 6.49995 2.78075 6.5514L0.849413 7.06873C0.598343 7.13598 0.399993 7.32844 0.325195 7.57736C0.250397 7.82629 0.309817 8.0962 0.482235 8.2907L3.4489 11.6374C3.63738 11.85 3.92983 11.9378 4.20428 11.8643L13.8573 9.27731C14.1233 9.21045 14.3735 9.09173 14.5935 8.92794C14.8157 8.76254 15.0026 8.55449 15.1434 8.31597C15.2843 8.07746 15.3761 7.81325 15.4136 7.53882C15.4511 7.26438 15.4335 6.98522 15.3618 6.71768C15.2901 6.45013 15.1658 6.19956 14.9961 5.98063C14.8264 5.7617 14.6148 5.5788 14.3736 5.44263C14.1324 5.30647 13.8665 5.21977 13.5914 5.1876C13.3189 5.15575 13.0429 5.17801 12.7791 5.25308L9.98583 6.00143L6.50888 2.49262ZM7.18274 7.31558L5.19851 4.00551L5.74984 3.85769L9.22673 7.36643C9.41618 7.55762 9.69356 7.63263 9.95356 7.56298L13.1736 6.70031L13.1876 6.69641C13.2621 6.67489 13.3401 6.66845 13.4172 6.67745C13.4942 6.68646 13.5687 6.71074 13.6362 6.74886C13.7037 6.78699 13.763 6.8382 13.8105 6.8995C13.858 6.9608 13.8928 7.03096 13.9129 7.10587C13.933 7.18079 13.9379 7.25895 13.9274 7.33579C13.9169 7.41263 13.8912 7.48661 13.8517 7.5534C13.8123 7.62018 13.76 7.67844 13.6978 7.72475C13.6356 7.77106 13.5647 7.8045 13.4894 7.82312L13.4753 7.82676L4.26382 10.2954L2.40961 8.20369L2.86888 8.08067L4.23324 8.8681C4.40546 8.9675 4.61011 8.99444 4.80219 8.94299L6.73353 8.42565C6.96085 8.36476 7.14642 8.20069 7.2347 7.98253C7.32298 7.76438 7.30375 7.51743 7.18274 7.31558ZM2.00013 13.2499C1.58592 13.2499 1.25013 13.5857 1.25013 13.9999C1.25013 14.4141 1.58592 14.7499 2.00013 14.7499H14.0001C14.4143 14.7499 14.7501 14.4141 14.7501 13.9999C14.7501 13.5857 14.4143 13.2499 14.0001 13.2499H2.00013Z" fill="#60646C"/>
</svg>
