<svg width="16" height="16" viewBox="0 0 16 16" fill="none" xmlns="http://www.w3.org/2000/svg">
<path fill-rule="evenodd" clip-rule="evenodd" d="M2.05546 2.72196C2.57118 2.20624 3.27065 1.9165 4 1.9165H12C12.7293 1.9165 13.4288 2.20624 13.9445 2.72196C14.4603 3.23769 14.75 3.93716 14.75 4.6665V9.99975V9.99984C14.75 10.5636 14.5769 11.1137 14.2539 11.5757C13.9309 12.0377 13.4737 12.3894 12.9442 12.5829C12.5551 12.7251 12.1245 12.525 11.9823 12.136C11.84 11.747 12.0401 11.3163 12.4292 11.1741C12.6698 11.0861 12.8777 10.9263 13.0245 10.7163C13.1713 10.5062 13.25 10.2562 13.25 9.99993V9.99984V4.6665C13.25 4.33498 13.1183 4.01704 12.8839 3.78262C12.6495 3.5482 12.3315 3.4165 12 3.4165H4C3.66848 3.4165 3.35054 3.5482 3.11612 3.78262C2.8817 4.01704 2.75 4.33498 2.75 4.6665V9.99984C2.75 10.5469 3.10302 11.0147 3.59627 11.1836C3.98815 11.3178 4.19707 11.7442 4.0629 12.1361C3.92873 12.528 3.50228 12.7369 3.1104 12.6027C2.03031 12.2329 1.25 11.2087 1.25 9.99984V4.6665C1.25 3.93716 1.53973 3.23769 2.05546 2.72196ZM6.52685 7.86007C6.91755 7.46937 7.44745 7.24988 7.99999 7.24988C8.55252 7.24988 9.08243 7.46937 9.47313 7.86007C9.86383 8.25077 10.0833 8.78068 10.0833 9.33321C10.0833 9.88575 9.86383 10.4156 9.47313 10.8064C9.08243 11.1971 8.55252 11.4165 7.99999 11.4165C7.44745 11.4165 6.91755 11.1971 6.52685 10.8064C6.13615 10.4156 5.91666 9.88575 5.91666 9.33321C5.91666 8.78068 6.13615 8.25077 6.52685 7.86007ZM7.99999 8.74988C7.84528 8.74988 7.69691 8.81134 7.58751 8.92073C7.47811 9.03013 7.41666 9.1785 7.41666 9.33321C7.41666 9.48792 7.47811 9.63629 7.58751 9.74569C7.69691 9.85509 7.84528 9.91654 7.99999 9.91654C8.1547 9.91654 8.30307 9.85509 8.41247 9.74569C8.52187 9.63629 8.58332 9.48792 8.58332 9.33321C8.58332 9.1785 8.52187 9.03013 8.41247 8.92073C8.30307 8.81134 8.1547 8.74988 7.99999 8.74988ZM6.2542 13.5874C6.3636 13.478 6.51197 13.4165 6.66668 13.4165H9.33334C9.48805 13.4165 9.63643 13.478 9.74582 13.5874C9.85522 13.6968 9.91668 13.8451 9.91668 13.9998C9.91668 14.4141 10.2525 14.7498 10.6667 14.7498C11.0809 14.7498 11.4167 14.4141 11.4167 13.9998C11.4167 13.4473 11.1972 12.9174 10.8065 12.5267C10.4158 12.136 9.88588 11.9165 9.33334 11.9165H6.66668C6.11414 11.9165 5.58424 12.136 5.19354 12.5267C4.80284 12.9174 4.58334 13.4473 4.58334 13.9998C4.58334 14.4141 4.91913 14.7498 5.33334 14.7498C5.74756 14.7498 6.08334 14.4141 6.08334 13.9998C6.08334 13.8451 6.1448 13.6968 6.2542 13.5874Z" fill="#60646C"/>
</svg>
